<?xml version="1.0" encoding="utf-8"?>
<!-- Generator: Adobe Illustrator 24.0.0, SVG Export Plug-In . SVG Version: 6.00 Build 0)  -->
<svg version="1.1" id="Livello_1" xmlns="http://www.w3.org/2000/svg" xmlns:xlink="http://www.w3.org/1999/xlink" x="0px" y="0px"
	 viewBox="0 0 159 45" style="enable-background:new 0 0 159 45;" xml:space="preserve">
<style type="text/css">
	.st0{fill:#FFFFFF;stroke:#20AF3A;stroke-width:0.2159;stroke-miterlimit:22.9256;}
	.st1{fill-rule:evenodd;clip-rule:evenodd;fill:#B21F24;}
</style>
<g id="Il_pan_del_marco">
	<g>
		<path class="st0" d="M137,34.8l-0.1-0.5l-0.1-0.6l0-0.3l0-0.3l0-0.3l0-0.3l0-0.3l0-0.3l0-0.3l0-0.3l0.1-0.3l0.1-0.3l0.1-0.3
			l0.1-0.3l0.1-0.3l0.1-0.3l0.1-0.3l0.1-0.3l0.1-0.3l0.1-0.3l0.1-0.3l0.1-0.3l0.1-0.3l0.1-0.3l0.1-0.3l0.2-0.3l0.2-0.3l0.2-0.3
			l0.2-0.3l0.2-0.3l0.2-0.3l0.2-0.3l0.2-0.3l0.2-0.3l0.2-0.3l0.2-0.3l0.2-0.3l0.2-0.3l0.2-0.3l0.2-0.3l0.2-0.3l0.2-0.3l0.2-0.3
			l0.2-0.2l0.2-0.2l0.2-0.2l0.2-0.2l0.3-0.2l0.3-0.2l0.3-0.2l0.3-0.3l0.3-0.2l0.3-0.2l0.3-0.2l0.3-0.2l0.3-0.2l0.3-0.1l0.3-0.1
			l0.3-0.1l0.3-0.1l0.3,0l0.3,0l0.3,0l0.3,0.1l0.3,0.1l0.3,0.1l0.2,0.1l0.1,0.1l0.1,0.1l0.1,0.1l0.1,0.1l0.1,0.2l0.1,0.2l0.2,0.2
			l0.1,0.2l0.1,0.2l0.1,0.2l0.1,0.1l0.1,0.1l0.1,0.1l0.1,0.1l0.1,0.1l0.2,0.3l0.2,0.3l0.2,0.4l0.1,0.4l0.1,0.4l0.1,0.4l0,0.5l0,0.5
			l0,0.3l0,0.3l0,0.3l0,0.3l0,0.3l0,0.3l0,0.3l0,0.2l0,0.2l-0.1,0.2l-0.1,0.3l-0.1,0.2l-0.1,0.2l-0.1,0.2l-0.1,0.2l-0.1,0.2
			l-0.1,0.3l-0.1,0.3l-0.1,0.3l-0.1,0.3l-0.1,0.3l-0.1,0.3l-0.1,0.3l-0.2,0.3l-0.2,0.3l-0.2,0.3l-0.2,0.3l-0.2,0.3l-0.2,0.3
			l-0.2,0.3l-0.2,0.3l-0.2,0.3l-0.2,0.3l-0.2,0.3l-0.2,0.3l-0.2,0.3l-0.2,0.3l-0.2,0.3l-0.2,0.2l-0.2,0.2L147,35l-0.2,0.2l-0.2,0.2
			l-0.2,0.2l-0.2,0.2l-0.2,0.2l-0.2,0.2l-0.3,0.2l-0.2,0.2l-0.2,0.2l-0.2,0.2l-0.2,0.1l-0.2,0.1l-0.2,0.1l-0.2,0.1l-0.2,0.1
			l-0.2,0.1l-0.2,0.1l-0.2,0.1l-0.2,0.1l-0.2,0.1l-0.2,0.1l-0.2,0.1l-0.2,0.1l-0.4,0.1l-0.4,0.1l-0.4,0l-0.3,0l-0.3,0l-0.3-0.1
			l-0.3-0.1l-0.3-0.2l-0.1-0.1l-0.1-0.1l-0.1-0.1l-0.1-0.1l-0.1-0.1l-0.1-0.1l-0.1-0.1l-0.1-0.1l-0.1-0.1l-0.1-0.1l-0.1-0.1l0-0.1
			l0,0l-0.2-0.1l-0.3-0.3l-0.2-0.4l-0.2-0.4l-0.2-0.5L137,34.8z M140.8,33.5L140.8,33.5l0.2-0.1l0.2-0.1l0.2-0.1l0.2-0.1l0.2-0.1
			l0.2-0.1l0.2-0.1l0.2-0.1l0.2-0.1l0.1-0.1l0.1-0.1l0.1-0.1l0.2-0.1l0.2-0.1l0.2-0.2l0.2-0.2l0.2-0.2l0.2-0.2l0.2-0.2l0.2-0.2
			l0.2-0.2l0.2-0.2l0.2-0.2l0.2-0.3l0.2-0.3l0.2-0.3l0.2-0.3l0.2-0.3l0.2-0.3l0.2-0.3l0.2-0.3l0.2-0.3l0.1-0.2l0.1-0.2l0.1-0.2
			l0.1-0.2l0.1-0.2l0.1-0.2l0.1-0.2l0.1-0.2l0.1-0.2l0.1-0.4l0.1-0.3l0.1-0.3l0.1-0.3l0.1-0.3l0.1-0.3l0-0.2l-0.1,0l-0.2,0.1
			l-0.3,0.1l-0.3,0.1l-0.3,0.2l-0.3,0.2l-0.3,0.2l-0.3,0.2l-0.3,0.2l-0.3,0.2l-0.2,0.1l-0.2,0.2l-0.2,0.2l-0.2,0.2l-0.2,0.2
			l-0.2,0.2l-0.2,0.2l-0.2,0.2l-0.2,0.2L144,27l-0.2,0.2l-0.2,0.2l-0.2,0.2l-0.2,0.2l-0.2,0.2l-0.2,0.2l-0.2,0.2l-0.2,0.2l-0.1,0.2
			l-0.1,0.2l-0.1,0.2l-0.1,0.2l-0.1,0.2l-0.1,0.2l-0.1,0.2l-0.1,0.2l-0.1,0.2l-0.1,0.2l-0.1,0.2l-0.1,0.2l-0.1,0.2l-0.1,0.2
			l-0.1,0.2l-0.1,0.2l-0.1,0.2l-0.1,0.2l0,0.2l0,0.2l0,0.2L140.8,33.5z M140.1,21.8L140,22l-0.1,0.2l-0.1,0.2l-0.1,0.2l-0.2,0.2
			l-0.1,0.1l-0.1,0.1l-0.1,0.1l-0.1,0.1l-0.1,0l-0.1,0l-0.1,0l-0.1,0l-0.1,0l-0.1,0l-0.1,0l-0.1,0l-0.1,0l-0.1,0l-0.1,0l-0.1-0.1
			L137,23l-0.2-0.1l-0.2-0.1l-0.2-0.2l-0.1-0.2l-0.1-0.2l-0.1-0.2l-0.1-0.3l-0.1-0.3l0-0.3l0-0.2l0-0.2l0-0.2l0-0.2l0.1-0.2l0.1-0.2
			l0-0.1l0-0.1l0-0.2l0.1-0.2l0.1-0.2l0,0l-0.1,0.2l-0.2,0.2l-0.2,0.3l-0.2,0.3l-0.2,0.3l-0.2,0.3l-0.2,0.3l-0.2,0.3l-0.2,0.3
			l-0.2,0.3l-0.2,0.3l-0.2,0.3l-0.2,0.3l-0.2,0.3l-0.2,0.3l-0.2,0.3l-0.2,0.3l-0.2,0.3l-0.2,0.3l-0.1,0.3l-0.1,0.3l-0.1,0.3
			l-0.1,0.3l-0.1,0.3l-0.1,0.3l-0.1,0.3l-0.1,0.2l-0.1,0.2l-0.1,0.2l-0.1,0.2l-0.1,0.2l-0.1,0.2l-0.1,0.2l-0.1,0.2l-0.1,0.2l0,0.2
			l0,0.2l0,0.1l0,0l0.2-0.1l0.2-0.1l0.2-0.2l0.2-0.2l0.2-0.2l0.2-0.2l0.2-0.2l0.2-0.2l0.2-0.2l0.2-0.3l0.2-0.3l0,0l0,0l0,0l0-0.1
			l0-0.1l0-0.1l0,0l0.1-0.2l0.1-0.2l0.2-0.2l0.2-0.2l0.2-0.2l0.2-0.1l0.2-0.1l0.2-0.1l0.1-0.1l0.2-0.1l0.2-0.1l0.2,0l0.2,0l0.2,0
			l0.2,0l0.2,0l0.2,0.1l0.2,0.1l0.2,0.1l0.1,0.1l0.1,0.1l0.1,0.1l0.1,0.2l0.1,0.2l0.1,0.2l0.1,0.2l0.1,0.2l0.1,0.2l0,0.2l0,0.2
			l0,0.2l0,0.2l0,0.2l-0.1,0.2l-0.1,0.2l-0.1,0.2l-0.1,0.2l-0.1,0.2l-0.1,0.2l-0.1,0.2l-0.1,0.2l-0.1,0.2l-0.1,0.2l-0.2,0.2
			l-0.2,0.2l-0.2,0.2l-0.2,0.2l-0.2,0.2l-0.2,0.2l0,0.1l-0.1,0.1l-0.1,0.1l-0.1,0.1l-0.1,0.1l-0.1,0.1l-0.1,0.1l-0.1,0.1l-0.1,0.1
			l-0.1,0.1l-0.1,0.1l-0.1,0l0,0l0,0l0,0l-0.2,0.2l-0.2,0.2l-0.3,0.2l-0.3,0.2l-0.3,0.1l-0.3,0.1l-0.3,0.1l-0.3,0.1l-0.3,0.1l-0.3,0
			l-0.3,0l-0.3,0l-0.3,0l-0.3-0.1l-0.3-0.1l-0.3-0.1l-0.5-0.2l-0.4-0.3l-0.4-0.3l-0.4-0.3l-0.3-0.3l-0.3-0.4l-0.3-0.4l-0.2-0.4
			l-0.1-0.3L127,30l-0.1-0.3l-0.1-0.3l0-0.3l0-0.3l0-0.3l0-0.3l0-0.3l0-0.3l0-0.3l0-0.3l0-0.3l0.1-0.3l0.1-0.3l0.1-0.3l0.1-0.4
			l0.1-0.4l0.1-0.4l0.1-0.4l0.2-0.4l0.2-0.4l0.2-0.4l0.2-0.4l0.2-0.4l0.2-0.4l0.2-0.4l0.2-0.4l0.2-0.4l0.2-0.4l0.2-0.4l0.2-0.4
			l0.3-0.4l0.3-0.4l0.3-0.4l0.3-0.4l0.3-0.4l0.3-0.3l0.2-0.3l0.2-0.3l0.3-0.3l0.2-0.3l0.2-0.3l0.2-0.3l0.2-0.3l0.2-0.3l0.2-0.2
			l0.2-0.2l0.3-0.3l0.3-0.3l0.3-0.3l0.3-0.2l0.3-0.2l0.3-0.2l0.3-0.2l0.3-0.1l0.3-0.1l0.3-0.1l0.3,0l0.3,0l0.3,0l0.3,0l0.3,0.1
			l0.3,0.1l0.3,0.1l0.3,0.2l0.2,0.2l0.2,0.2l0.2,0.3l0.2,0.3l0.2,0.3l0.2,0.3l0,0.1l0,0.1l0,0.1l0,0.1l0,0.1l0,0.1l0,0.1l0,0
			l0.1,0.2l0.1,0.2l0.1,0.2l0.1,0.2l0.1,0.2l0.1,0.2l0,0.2l0,0.2l0,0.2l0,0.2l0,0.2l0,0.2l0,0.2l0,0.2l0,0.2l-0.1,0.2l-0.1,0.3
			l-0.1,0.3l-0.1,0.3l-0.1,0.3l-0.1,0.3l-0.1,0.3l-0.1,0.3l-0.1,0.3l-0.1,0.3l-0.1,0.2L140.1,21.8z M130.6,10l0.2,0.2l0.2,0.2
			l0.2,0.2l0.2,0.2l0.1,0.3l0.1,0.3l0.1,0.3l0.1,0.3l0.1,0.3l0,0.2l0,0.2l0,0.2l0,0.2l0,0.2l0,0.3l0,0.3l0,0.3v0.3l0,0.3l0,0.2
			l0,0.2l0,0.2l0,0.2l0,0.2l0,0.2l-0.1,0.4l-0.1,0.4l-0.2,0.3l-0.2,0.3l-0.2,0.3l-0.2,0.3l-0.2,0.3l-0.3,0.3l-0.1,0.1l-0.1,0.1
			l-0.2,0.1l-0.2,0.1l-0.2,0.1l-0.2,0.1l-0.2,0.1l-0.2,0.1l-0.2,0.1l-0.2,0.1l-0.2,0.1l-0.2,0.1l-0.2,0.1l-0.2,0.1l-0.2,0.1
			l-0.2,0.1l-0.2,0.1L127,21l-0.2,0.1l-0.2,0.1l-0.2,0.1l-0.2,0.1l-0.2,0.1l-0.2,0.1l-0.1,0l0,0.2l0,0.3l0,0.3l0,0.3l0,0.3l0,0.3
			l0,0.3l0,0.3l0,0.3l0,0.3l0,0.4l0,0.3l0,0.3l0,0.3l0,0.3l0,0.3l0,0.3l0,0.2l0,0.2l0,0.2l0,0.2l0,0.2l0,0.2l0,0.2l0,0.2l0,0.2
			l-0.1,0.2l-0.1,0.2l-0.1,0.2l-0.1,0.2l-0.1,0.1l-0.1,0.1l-0.1,0.1l-0.1,0l0,0l0,0l0,0l0,0l0,0l0,0l0,0l0,0l0,0l0,0l-0.1,0.1
			l-0.1,0.1l-0.1,0.1l-0.1,0.1l-0.1,0.1l-0.1,0.1l-0.2,0.1l-0.2,0l-0.2,0l-0.2-0.1l-0.2-0.1l-0.2-0.1l-0.2-0.2l-0.2-0.2l-0.1-0.2
			l-0.1-0.2l-0.1-0.2l-0.1-0.3l-0.1-0.3l-0.1-0.3l-0.1-0.4l-0.1-0.4L122,27l-0.1-0.5l-0.1-0.5l0-0.2l0-0.2l0-0.2l0-0.2l0-0.2l0-0.2
			l0-0.2l0-0.2l0-0.2l0-0.2l0-0.2l0-0.2l0-0.2l-0.1,0.1l-0.1,0.2l-0.1,0.3l-0.1,0.3l-0.1,0.3l-0.1,0.3l-0.1,0.3l-0.1,0.3l-0.1,0.3
			l-0.1,0.3l-0.1,0.3l-0.1,0.3l-0.1,0.2l-0.1,0.2l-0.1,0.2l-0.1,0.2l-0.1,0.2l-0.1,0.2l-0.1,0.1l-0.1,0.1l-0.2,0.1l-0.2,0.1
			l-0.3,0.1l-0.3-0.1l-0.2-0.1l-0.1,0l0,0l0,0l-0.1,0l-0.1-0.1l-0.1-0.1l-0.1-0.1l-0.1-0.1l-0.1-0.1l-0.1-0.1l-0.1-0.1l-0.1-0.1
			l-0.1-0.1l-0.1-0.1l-0.1-0.1l0,0l-0.1-0.1l-0.1-0.1l-0.1-0.1l-0.1-0.1l-0.1-0.1l-0.1-0.1l-0.1-0.1l-0.1-0.2l-0.1-0.1l0-0.2l0-0.2
			l0-0.2l0-0.2l0-0.2l0-0.2l0.1-0.3l0.1-0.3l0.1-0.3l0.1-0.3l0.1-0.4l0.2-0.4l0.2-0.5l0.2-0.5l0.2-0.6l0.3-0.6l0.3-0.7l0.3-0.7
			l0.3-0.7l0.3-0.8l0.4-0.8l0.4-0.9l0.3-0.6l0,0l0,0l0,0l0,0l0-0.1l0-0.1l0.2-0.4l0.2-0.4l0.2-0.4l0.2-0.4l0.2-0.4l0.2-0.4l0.2-0.4
			l0.2-0.4l0.2-0.4l0.2-0.4l0.2-0.4l0.2-0.4l0.2-0.4l0.2-0.4l0.2-0.4l0.2-0.4l0-0.1l0,0l0,0l0,0l0,0l0,0l0,0l0-0.1l0.1-0.2l0.1-0.2
			l0.1-0.2l0.1-0.1l0.1-0.1l0.1-0.1l0.2-0.1l0.2-0.1l0.1,0l0,0l0,0l0,0l0,0l0,0l0,0l0.1,0l0.1,0l0.1,0l0,0l0,0l0.1,0l0.1,0l0.1,0
			h0.3l0.3,0.1l0.1,0.1l0.1,0.1l0.1,0.1l0.1,0.1l0.1,0.1l0.1,0.1l0.1,0.1l0.1,0.1l0,0l0.2,0l0.2,0l0.2,0l0.2,0l0.2,0l0.2,0l0.2,0
			l0.2,0l0.2,0l0.2,0l0.2,0l0.2,0.1l0.2,0.1l0.2,0.1L129,9l0.2,0.1l0.2,0.1l0.2,0.1l0.2,0.1l0.2,0.2l0.2,0.2L130.6,10z M127.4,13.8
			L127.4,13.8L127.4,13.8l-0.1-0.1l0,0l0,0l0,0l0,0l0,0l-0.1,0l-0.1,0l-0.1,0l-0.1,0l-0.1,0l-0.2,0l-0.2,0l-0.1,0l-0.1,0l-0.1,0
			l-0.1,0l0,0l0,0l0,0l0,0l0,0l0,0l0,0l0,0l-0.1,0.1l-0.2,0.4l-0.2,0.4l-0.2,0.4l-0.2,0.4l-0.2,0.4l-0.2,0.4l-0.1,0.3l0,0l0.2-0.1
			l0.3-0.1l0.3-0.1l0.3-0.1l0.3-0.1l0.2-0.1l0.2-0.1l0.2-0.1l0.2-0.1l0.2-0.1l0.2-0.2l0.2-0.2l0.2-0.2l0.2-0.2l0.1-0.2l0.1-0.2
			l0.1-0.1l0-0.1l-0.1,0l-0.1,0l-0.1,0l-0.1,0l0,0l0,0l0,0l0,0l0,0l0,0L127.4,13.8L127.4,13.8L127.4,13.8z M113.7,15.6L113.7,15.6
			l0-0.2L113.7,15.6l-0.3,0.3l0.1,0l0.1,0l0,0l0-0.1l0-0.1L113.7,15.6L113.7,15.6z M104.8,23.1l0.1-0.2l0.1-0.2l0.1-0.2l0.1-0.2
			l0.1-0.2l0.1-0.3l0.1-0.3l0.2-0.3l0.2-0.3l0.2-0.4l0.2-0.4l0.2-0.4l0.2-0.4l0.2-0.4l0.2-0.4l0.2-0.4l0.2-0.4l0.2-0.4l0.2-0.4
			l0.2-0.4l0.2-0.4l0.2-0.4l0.2-0.4l0.2-0.4l0.3-0.4l0.3-0.4l0.3-0.4l0.3-0.4l0.2-0.2l0.2-0.3l0.2-0.3l0.2-0.3l0.2-0.3l0.2-0.3
			l0.2-0.3l0.4-0.6l0.2-0.3l0.2-0.3l0.2-0.3l0.2-0.3l0.2-0.4l0.2-0.4l0.2-0.4l0.2-0.4l0.2-0.4l0.2-0.4l0.2-0.3l0.2-0.3l0.2-0.3
			l0.2-0.3l0.2-0.2l0.2-0.2L115,5l0.1-0.2l0.2-0.2l0.2-0.1l0.2-0.1l0.3-0.1l0.3,0l0.4,0.1l0.3,0.1l0.3,0.1l0.3,0.1l0.3,0.1l0.3,0.1
			l0.3,0.2l0.3,0.2l0.2,0.2l0.2,0.2l0.2,0.2l0.2,0.2l0.2,0.2l0.2,0.2l0.2,0.4l0,0.5l0,0.2l0,0.1l0,0.1l0,0l0,0l0,0l0,0l0,0l-0.1,0.2
			l-0.1,0.2l-0.1,0.2l-0.1,0.2l-0.1,0.2l-0.1,0.3l0,0.3l0,0.3l0,0.1l0,0l0,0l0,0l0,0l0,0.1l0,0l0,0l0,0.1l0,0.1l0,0l0,0l0,0l0,0.1
			l0,0l0,0.1l0,0.2l0,0.2l0,0.2l0,0.2l-0.1,0.2l-0.1,0.2l-0.1,0.3l-0.1,0.2l-0.1,0.2l0,0.2l0,0.2l0,0.2l0,0.2l0,0.2l0,0.1l0,0l0,0
			l0,0l0,0l0,0.1l0,0.1l0,0l0,0.1l0,0l0,0l0,0l0,0l0,0l0,0.1l0,0.1l0,0.1l0,0.1l0,0.1l0,0.2l0,0.2l-0.1,0.3l-0.1,0.3l-0.1,0.4
			l-0.1,0.4l-0.1,0.4l-0.2,0.8l-0.2,0.8l-0.1,0.4l-0.1,0.4l-0.1,0.3l-0.1,0.4l-0.1,0.3l-0.1,0.3l-0.1,0.3l-0.1,0.3l-0.1,0.3
			l-0.1,0.3l-0.1,0.3l-0.1,0.3l-0.1,0.3l-0.1,0.3l-0.1,0.3l-0.1,0.3l-0.1,0.3l-0.1,0.3l0,0.1l0,0.1l0,0.2l0,0.1l0,0l0,0v0l0,0v0l0,0
			l0,0l0,0.1l0,0v0.1l0,0.1l0,0.1l0,0.1l-0.1,0.2l-0.1,0.2l-0.1,0.2l-0.1,0.1l-0.1,0.1l-0.1,0.1l-0.1,0.1l-0.1,0.1l-0.1,0l-0.1,0
			l-0.1,0l-0.1,0l-0.1,0l-0.1,0h-0.1l-0.1,0l-0.1,0l-0.1,0l-0.1,0l-0.1,0l-0.1,0l-0.1,0l0,0l0,0l-0.1,0l-0.1,0l-0.1,0l-0.1,0l-0.1,0
			l-0.1,0l-0.1,0l-0.2-0.1l-0.2-0.1l-0.2-0.1l-0.2-0.2l-0.2-0.2l-0.1-0.2l-0.1-0.3l-0.1-0.3l0-0.3l0-0.3l0-0.3l0-0.3l0-0.3l0-0.4
			l0-0.4l0.1-0.4l0-0.1l0-0.1l0-0.1l0-0.2l0-0.2l0-0.2l0-0.2l0-0.2l0-0.2l0-0.2l-0.1,0l-0.3,0l-0.2,0l-0.2,0l-0.2,0l-0.2,0l-0.2,0
			l-0.2,0l-0.1,0l-0.1,0l-0.1,0l0,0l0,0l-0.1,0.1l-0.1,0.1l-0.1,0.2l0,0.1l0,0.1l0,0.1l0,0.1l0,0.1l0,0.1l0,0.1l0,0.1l0,0.1l0,0.1
			l0,0.1l0,0.1l0,0.1l-0.1,0.1l-0.1,0.1l-0.1,0.1l-0.2,0.3l-0.2,0.3l-0.2,0.3l-0.2,0.3l-0.2,0.3l-0.1,0.3l-0.1,0.3l-0.1,0.3
			l-0.1,0.1l-0.1,0.2l-0.1,0.2l-0.1,0.1l-0.1,0.1l-0.1,0.1l-0.1,0.1l-0.1,0.1l-0.1,0.1l-0.1,0.1l-0.1,0.1l-0.2,0l-0.1,0l-0.2,0
			l-0.2,0l-0.1,0l-0.2,0l-0.2-0.1l-0.2-0.1l-0.2-0.1l-0.1-0.1l-0.1-0.1l-0.1-0.1l-0.1-0.1l-0.1-0.1l-0.1-0.1l-0.1-0.2l-0.1-0.2
			l-0.1-0.2l-0.1-0.3l0-0.3l0-0.3l0.1-0.2l0.1-0.2l0.1-0.2L104.8,23.1z M99.3,20.3l-0.1-0.1l-0.1-0.1L98.9,20l-0.1-0.1l-0.1-0.1
			l-0.1-0.1l-0.1-0.1l-0.1-0.1l-0.1-0.2l-0.1-0.2L98,18.8l-0.1-0.3l-0.1,0.3l-0.1,0.5l-0.1,0.5l-0.1,0.5l-0.1,0.4l-0.1,0.4l-0.1,0.4
			L97,21.9l-0.1,0.3l-0.1,0.3l-0.1,0.2l-0.1,0.2l-0.1,0.2l-0.3,0.3l-0.4,0.1l-0.3,0l-0.1,0l-0.1,0l-0.1,0l-0.1,0l-0.2-0.1l-0.2-0.1
			l-0.1-0.1L94.3,23L94.2,23l-0.1-0.1l-0.1-0.1l-0.1-0.1l-0.1-0.1l-0.2-0.2l-0.1-0.2L93.3,22l0-0.1l0-0.1l0-0.1l0-0.1l0,0l0,0
			l-0.1-0.2l0-0.2l0-0.2l0-0.2l0-0.2l0-0.1l0-0.1l0-0.2l0-0.2l0.1-0.2l0.1-0.2l0.1-0.3l0.1-0.3l0.1-0.3l0.1-0.3l0.1-0.4l0.1-0.4
			L94,17l0.1-0.5l0.1-0.5l0.1-0.5l0.1-0.5l0.1-0.5l0.1-0.5l0.2-0.5l0.2-0.5l0.2-0.6l0.2-0.6l0.2-0.6l0.2-0.6l0.2-0.6l0.2-0.6
			l0.2-0.6l0.2-0.6l0.2-0.6l0.2-0.6l0.1-0.3L97,6.5l0.1-0.3l0.1-0.3l0.1-0.3l0.1-0.3L97.4,5l0.1-0.3l0.1-0.3l0.1-0.3l0.1-0.2
			l0.1-0.2l0.1-0.2l0-0.1l0-0.1L98.1,3l0.1-0.2l0.1-0.1l0.1-0.1l0.1-0.1l0.1-0.1l0.1,0l0.1,0l0.1,0l0.1,0l0.1,0l0.1,0l0.1,0l0.1,0
			l0.1,0l0.1,0h0.2l0.1,0l0,0l0,0l0.1,0l0.1,0l0.1,0l0.1,0l0.1,0l0.1,0l0.1,0l0.1,0l0.1,0l0.1,0l0.1,0l0.1,0l0.1,0l0.3,0l0.2,0
			l0.2,0l0.1,0l0.2,0l0.2,0.1l0.2,0.1l0.2,0.1l0.2,0.2l0.1,0.2l0.1,0.2l0.1,0.2l0,0.2l0,0.2l0,0.2l0,0.2l0,0.2l0,0.3l0,0.3l0,0.3
			l0,0.3l0,0.3l0,0.3l0,0.3l0,0.3l0,0.3l0,0.3l0,0.2l0.1-0.2l0.2-0.4l0.2-0.4l0.2-0.4l0.2-0.3l0.2-0.3l0.1-0.2l0.1-0.2l0.1-0.2
			l0.1-0.2l0.1-0.3l0.1-0.3l0.1-0.3l0.1-0.3l0.2-0.5l0.2-0.4l0.2-0.4l0.2-0.3l0.3-0.3l0.3-0.3l0.4-0.2l0.4,0l0.3,0l0.2,0l0.2,0.1
			l0.2,0.1l0.2,0.1l0.2,0.1l0.2,0.1l0.2,0.1l0.2,0.1l0.2,0.1l0.2,0.1l0.2,0.2l0.2,0.2l0.2,0.2l0.1,0.4l0,0.5l-0.1,0.3l0,0.1l0,0.1
			l0,0.1l0,0.1l0,0.1l0,0.1l0,0.1l0,0.1l0,0.2l0,0.2l0,0.2l0,0.2l0,0.2l0,0.2l0,0.2l0,0.2L108.9,7l-0.1,0.2l-0.1,0.2l-0.1,0.2
			L108.7,8l-0.1,0.3l-0.1,0.3l-0.1,0.3l-0.1,0.3l-0.1,0.3l-0.1,0.3l-0.1,0.3l-0.1,0.3l-0.1,0.3l-0.1,0.3l-0.1,0.3l-0.1,0.3l-0.1,0.3
			l-0.1,0.3l-0.1,0.3l-0.1,0.3l-0.1,0.3l-0.1,0.3l-0.1,0.3l-0.1,0.3l-0.1,0.3l-0.1,0.3l-0.1,0.3l-0.1,0.3l-0.1,0.3l-0.1,0.3
			l-0.1,0.3l-0.1,0.3l-0.1,0.3l-0.1,0.4l-0.1,0.4l-0.1,0.4l-0.1,0.4l-0.1,0.4l-0.1,0.6l-0.1,0.5l-0.1,0.5l-0.1,0.5l-0.1,0.4
			l-0.1,0.4l-0.1,0.4l-0.1,0.3l-0.1,0.3l-0.1,0.3l-0.1,0.2l-0.1,0.2l-0.2,0.2l-0.2,0.2l-0.3,0.2l-0.3,0l-0.2,0l-0.3,0l-0.2,0l-0.2,0
			l-0.2-0.1l-0.2-0.1l-0.2-0.1l-0.2-0.1l-0.2-0.1l-0.2-0.1l-0.1-0.1l-0.1-0.2l-0.1-0.2l-0.1-0.2l-0.1-0.2L101,22l0-0.3l0-0.4l0-0.2
			l0-0.1l0-0.1l0-0.1l0.1-0.2l0.1-0.2l0.1-0.2l0.1-0.3l0.1-0.3l0.1-0.4l0.1-0.4l0.1-0.4l0.1-0.3l-0.1,0.2l-0.1,0.3l-0.1,0.3
			l-0.1,0.2l-0.1,0.2l-0.1,0.2l-0.1,0.1l-0.1,0.1l0,0.1l0,0.1l0,0.1l0,0.1l-0.1,0.1l-0.1,0.1l-0.1,0.1l-0.1,0.1l-0.1,0.1l-0.1,0.1
			l-0.1,0l-0.1,0l-0.1,0l-0.1,0l-0.1,0l-0.1,0l-0.1,0h-0.1l-0.1,0l-0.1,0l-0.1,0l-0.1-0.1L99.3,20.3z M85.4,0.2l0.2,0l0.2,0l0.2,0
			l0.2,0.1l0.2,0.1l0.2,0.1l0.1,0.1l0.1,0.1l0.1,0.1L86.9,1L87,1.2l0.1,0.2l0.1,0.2l0.1,0.2l0,0.2l0,0.2l0,0.2l0,0.2l0,0.3l0,0.3
			l-0.1,0.4l-0.1,0.5L87,4.8l-0.1,0.6l-0.1,0.3l-0.1,0.3l-0.1,0.3l-0.1,0.3l-0.1,0.3l-0.1,0.4l-0.1,0.4l-0.1,0.4l-0.1,0.4L86.3,9
			l-0.1,0.4l-0.1,0.4l-0.1,0.4L86,10.5L85.9,11l-0.1,0.4l0,0.2l0,0.2l0,0.2l0,0.2l0,0.2l0,0.2l0,0.3l0,0.3l0,0.3l0,0.3l0,0.3
			l-0.1,0.3l-0.1,0.3l-0.1,0.3l-0.1,0.3l-0.1,0.3L85,15.9l-0.1,0.4l0.2,0l0.2,0l0.2,0l0.2,0l0.2,0l0.2,0l0.2,0l0.2,0l0.2,0.1
			l0.2,0.1l0.2,0.1l0.2,0.2l0.2,0.2l0.2,0.2l0.1,0.3l0.1,0.3l0.1,0.3l0.1,0.3l0,0.3l0,0.3l0,0.3l0,0.4l0,0.4l-0.1,0.4L88,20.8
			L87.8,21l-0.3,0.2l-0.3,0.1l-0.3,0.1l-0.3,0.1l-0.1,0l0,0l0,0l0,0l0,0l0,0l0,0l-0.2,0l-0.2,0l-0.2,0l-0.2,0l-0.2,0l-0.2,0
			l-0.2,0.1l-0.2,0.1l-0.2,0.1L84.2,22l-0.2,0.1l-0.2,0.1l-0.2,0.1l-0.2,0.1L83,22.4l-0.3,0.1l-0.1,0l-0.1,0l-0.1,0l-0.1,0l-0.1,0
			l-0.1,0l-0.1,0l-0.2,0l-0.2,0l-0.2-0.1l-0.1-0.1l-0.1-0.1l-0.1-0.1l0-0.1l0-0.1l0-0.1l0,0l0,0l0,0l0,0l0,0l0,0l0,0l0,0l0,0
			l-0.2-0.2l-0.1-0.2l-0.1-0.2l-0.1-0.2l-0.1-0.2l-0.1-0.3L80,20.4l0-0.3l0-0.2l0-0.1l0-0.2l0-0.2l0-0.2l0-0.2l0-0.3l0-0.3l0.1-0.3
			l0.1-0.3l0.1-0.4l0.1-0.4l0.1-0.4l0.1-0.5l0.1-0.5l0.1-0.5l0.1-0.3l0.1-0.3l0.1-0.3l0.1-0.3l0.1-0.3l0.1-0.3l0.1-0.3l0.1-0.3
			l0.2-1.2l0.1-0.3l0.1-0.3l0.1-0.3l0.1-0.3l0.1-0.3l0.1-0.3l0.1-0.3L82,9l0.1-0.3l0.1-0.3l0.1-0.7l0.1-0.4l0.1-0.4l0.1-0.4l0.1-0.4
			l0.1-0.7L82.8,5l0.1-0.4l0.1-0.3l0.1-0.3L83,3.8L83,3.6l0-0.2l0-0.2l0-0.2l0-0.2l0-0.2l0-0.2l0-0.2l0-0.2l0-0.2l0-0.2l0-0.2
			L83.6,1l0.3-0.3L84,0.5l0.1-0.1l0.1,0l0.1,0l0.1,0l0.1,0l0.1,0l0.1,0l0.1,0l0.1,0l0.1,0l0.1,0l0.1,0l0.1,0L85.4,0.2z M76.3,15.7
			l-0.1,0.4l-0.1,0.4l-0.1,0.3l0.1,0l0.2,0l0.3-0.1l0.3-0.1l0.2-0.1l0.2,0l0.2,0l0.2,0l0.2,0l0.1,0l0.2,0l0.2,0l0.2,0.1l0.2,0.1
			l0.2,0.1l0.1,0.1l0.1,0.1l0.1,0.1l0.1,0.2l0.1,0.2l0.1,0.2l0.1,0.2l0.1,0.2l0.1,0.2l0,0.2l0,0.2l0,0.2l0,0.1l0,0.1l0,0.1l0,0.1
			l0,0.1l0,0.1l0,0.1l0,0.1l0,0.1v0l0,0.1l0,0.1l0,0.1l0,0.1l0,0.1l0,0.1l0,0.1l0,0.1l0,0.1l0,0.2l-0.1,0.2l-0.1,0.2l-0.2,0.1
			l-0.1,0.1l-0.1,0l-0.1,0l-0.1,0l-0.1,0l-0.1,0l-0.1,0l-0.1,0h-0.1l-0.1,0l-0.1,0l-0.1,0l-0.1,0l-0.2,0l-0.2,0l-0.2,0.1L77.4,22
			L77.1,22l-0.3,0.1l-0.2,0.1l-0.2,0.1l-0.2,0l-0.2,0l-0.2,0l-0.2,0l-0.2,0l-0.2,0l-0.2,0l-0.2,0l-0.2,0l-0.2,0l-0.2,0l-0.2,0l0,0
			l0,0l0,0l0,0l0,0l0,0l-0.1,0h-0.1l-0.2,0l-0.2-0.1l-0.1-0.1l-0.1-0.1l-0.1-0.1l-0.1-0.1L72.5,22l-0.1-0.1l-0.2-0.2l-0.1-0.2
			L72,21.4l-0.1-0.2L71.7,21l-0.1-0.2l-0.1-0.3l0-0.3l0-0.2l0-0.1l0-0.1l0-0.1l0-0.1l0-0.2l0-0.2l0-0.2l0-0.2l0-0.2l0-0.2l0-0.2
			l0-0.3l0-0.3l0-0.3L72,17l0.1-0.3l0.1-0.3l0.1-0.3l0.1-0.4l0.1-0.4l0.1-0.4l0.1-0.4l0.1-0.4l0.1-0.4l0.1-0.4l0.1-0.5l0.1-0.5
			l0.1-0.5l0.1-0.5l0.1-0.5l0.1-0.5l0.4-1.9l0.1-0.6l0.1-0.6l0.1-0.5L74,6.1l0.1-0.5l0.1-0.4l0.1-0.4l0.1-0.4L74.4,4l0.1-0.3
			l0.1-0.3l0.1-0.3l0.1-0.3l0.1-0.2l0.1-0.2l0.1-0.2L75,1.9l0.1-0.3l0.2-0.3l0.2-0.3l0.2-0.2l0.3-0.2l0.3-0.1l0.3,0l0.2,0l0.1,0
			l0.1,0l0.1,0l0.1,0.1l0.1,0.1l0,0l0.1,0l0.1,0l0.2-0.1l0.2-0.1L78,0.6l0.2-0.1l0.2,0l0.2,0l0.2,0l0.2,0l0.2,0l0.2,0l0.2,0l0.2,0
			l0.2,0l0.2,0l0.2,0l0.2,0l0.2,0l0.2,0.1l0.2,0.1l0.2,0.2l0.1,0.2L81.8,1l0.1,0.2L82,1.3l0.1,0.2l0.1,0.2l0.1,0.2l0.1,0.2l0.1,0.2
			l0,0.2l0,0.2l0,0.2l0,0.3l0,0.3l-0.1,0.3l-0.1,0.3l-0.1,0.3L82,4.8l-0.2,0.2l-0.2,0.2l-0.2,0.1l-0.2,0.1l-0.3,0.1l-0.3,0.1
			l-0.3,0.1l-0.4,0l-0.4,0l-0.4,0l0,0l0,0l0,0l0,0l0,0l-0.1,0l-0.1,0l-0.1,0l-0.2,0l-0.2,0l0,0.1l0,0.2l0,0.2l0,0.2l0,0.2L78,7.1
			l-0.1,0.4L77.8,8l0,0.1l0.1,0l0.2,0l0.2,0l0.2,0l0.2,0L79,8l0.2,0l0.2,0l0.2,0l0.2,0L80,8l0.2,0.1l0.2,0.1l0.2,0.1l0.2,0.2
			l0.1,0.2l0.1,0.2L81,9.1l0.1,0.2l0,0.2l0,0.2l0,0.2l0,0.2l0,0.3l0,0.1l0,0.1l0,0.1l0,0.2l0,0.2l0,0.2l0,0.2l0,0.2v0l0,0l0,0l0,0
			l0,0l0,0.4l-0.4,0.5l-0.3,0.2L80,13.2l-0.3,0.1l-0.4,0.1l-0.4,0.1l-0.5,0.1l-0.6,0.1l0,0l0,0l0,0l0,0l0,0l0,0l-0.1,0l-0.1,0h0l0,0
			l0,0l0,0l0,0l0,0l0,0l-0.3,0l-0.2,0l-0.2,0l0,0l0,0l-0.1,0.4l-0.1,0.4l-0.1,0.4l-0.1,0.4L76.3,15.7z M61.4,15.6l0-0.3l0-0.3
			l0.1-0.6l0-0.3l0.5-4.5l0.1-0.8l0.1-0.7l0.1-0.7l0.1-0.6l0.1-0.6l0.1-0.5l0.1-0.5l0-0.4l0-0.4l0-0.3l0-0.3l0-0.2l0-0.2l0-0.1
			l0-0.1l0,0l0,0l0-0.1l0-0.1l0-0.1l0,0l0,0l0,0l0,0l0,0l0-0.1l0-0.3L62.7,2l0.1-0.3L63,1.5l0.2-0.2l0.2-0.1l0.2-0.1L63.8,1L64,0.9
			l0.2-0.1l0.2-0.1l0.2-0.1l0.3-0.1l0.3,0l0.3,0l0.3,0l0.2,0l0.2,0l0.2,0l0.2,0l0.2,0l0.2,0l0.2,0l0.2,0.1l0.2,0.1L68,0.8l0.2,0.1
			L68.4,1l0.2,0.1l0.2,0.1l0.2,0.1l0.2,0.1l0.3,0.2l0.3,0.2l0.3,0.3l0.3,0.3l0.2,0.3l0.2,0.3l0.2,0.4l0.2,0.4l0.2,0.4l0.2,0.4
			l0.1,0.4l0.1,0.4L72,6L72,6.5l0.1,0.5l0,0.5l0,0.4l0,0.4l0,0.4l0,0.4l0,0.4l0,0.4l0,0.4l0,0.4l0,0.4L72,11.1l-0.1,0.4l-0.1,0.4
			l-0.1,0.4l-0.1,0.4l-0.1,0.4l-0.1,0.4l-0.1,0.4l-0.1,0.4l-0.1,0.4L71,15l-0.1,0.4l-0.1,0.4l-0.1,0.4l-0.2,0.4l-0.2,0.4l-0.2,0.4
			l-0.2,0.4L69.7,18l-0.2,0.3l-0.2,0.3L69.1,19l-0.2,0.3l-0.3,0.4l-0.3,0.4l-0.3,0.4L67.8,21l-0.3,0.4l-0.3,0.4l-0.3,0.4l-0.4,0.3
			l-0.3,0.3l-0.3,0.3l-0.3,0.2l-0.3,0.2l-0.3,0.2l-0.3,0.1L64.4,24L64.1,24l-0.2,0l-0.2,0l-0.1,0l-0.1-0.1l-0.1-0.1l-0.1-0.1
			L63,23.7l-0.2-0.1l-0.1-0.1l-0.1,0l-0.1,0l-0.1,0l-0.1,0l-0.1,0l-0.1,0l-0.1,0l-0.1,0l0,0l-0.1,0l-0.1,0L62,23.2l-0.1,0l-0.1,0
			l-0.1,0L61.6,23l-0.1-0.1l-0.1-0.1l-0.2-0.1L61,22.5l-0.2-0.3l-0.1-0.4l0-0.3l0-0.1l0-0.2l0-0.3l0-0.4l0-0.4l0.1-0.5L61,19l0-0.3
			l0-0.3l0-0.3l0-0.3l0-0.3l0-0.3l0-0.3l0-0.3l0-0.4L61.4,15.6z M66.5,7.9l0,0.3l0,0.3l0,0.3l0,0.3L66.2,10l0,0.5l0,0.4l0,0.4l0,0.4
			l-0.1,0.8l-0.1,0.5l0,0.4l0,0.4l0,0.4l0,0.4l0,0.4L65.6,16l0,0.4l0.1-0.1l0.1-0.2l0.1-0.3l0.1-0.2l0.1-0.2l0.1-0.2l0.1-0.2
			l0.1-0.2l0.1-0.2l0.1-0.2l0.1-0.2l0.1-0.2l0.1-0.2l0.1-0.2l0.1-0.2l0.1-0.2l0.1-0.2l0.1-0.2l0.1-0.3l0.1-0.3l0-0.3l0-0.2l0-0.2
			l0-0.2l0-0.2l0-0.2l0-0.2l0-0.2l0-0.2l0-0.2l0-0.2l0-0.2l0-0.2l0-0.2l0-0.2l0-0.3l0-0.3l0-0.3l-0.1-0.2l-0.1-0.2l-0.1-0.2
			l-0.1-0.2l-0.1-0.1L67.1,6L67.1,6L67,5.9l-0.1,0l-0.1,0l-0.1,0l-0.1,0l-0.1,0l0,0.1l0,0.2l0,0.2l0,0.3l0,0.3l0,0.3l0,0.3L66.5,7.9
			z M39.3,18.4l-0.1,0.4l0.1,0l0.1,0l0,0l0-0.1l0-0.1l0-0.1L39.3,18.4L39.3,18.4l0-0.1L39.3,18.4z M33.8,29.7l0-0.2l0-0.3l0-0.3
			l0-0.3l0-0.3l0-0.4l0-0.4l0-0.4l0-0.4l0.1-0.5l0.1-0.5l0.1-0.5l0.1-0.5l0.1-0.5l0.1-0.5l0.1-0.5l0.1-0.5l0.1-0.5l0.1-0.5l0.1-0.5
			l0.1-0.5l0.1-0.5l0.1-0.5l0.1-0.5l0.1-0.5l0.1-0.5l0.1-0.3l0.1-0.3l0.1-0.3l0.1-0.3l0.1-0.3l0.1-0.4l0.1-0.4l0.1-0.4l0.1-0.4
			l0.1-0.4l0.1-0.4l0.1-0.4l0.1-0.4l0.1-0.4l0.1-0.4l0.1-0.4l0.1-0.5l0.1-0.5l0.1-0.5l0.1-0.4l0.1-0.4l0.1-0.4l0.1-0.3l0.1-0.3
			l0.1-0.3L37,8.3L37.1,8l0.1-0.2l0.1-0.2l0.1-0.2l0.2-0.2l0.3-0.2l0.4-0.1l0.3-0.1l0.3-0.1l0.3,0l0.3,0l0.3,0l0.3,0l0.3,0l0.3,0
			l0.2,0l0.2,0l0.2,0.1l0.2,0.1L41.6,7l0.3,0.3l0.2,0.4l0,0.2l0,0l0,0.1l0,0l0,0l0,0l0,0l0,0.1l0,0.2l0,0.2l0,0.2l0,0.2l0,0.3l0,0.3
			l0,0.3l0.1,0.3l0,0l0,0l0,0l0,0l0,0.1l0,0.1l0,0.1l0,0.1l0,0.1l0,0l0,0l0,0l0,0l0,0l0,0.1l0,0.2l0,0.2l0,0.2l0,0.2l0,0.2l0,0.2
			l0,0.3l0,0.3l0,0.2l0,0.2l0,0.2l0,0.2l0,0.2l0,0.2l0,0.1l0,0l0,0l0,0.1l0,0.1l0,0.1l0,0.1l0,0.1l0,0l0,0l0,0.1l0,0.1l0,0.1l0,0.1
			l0,0.1l0,0.2l0,0.2l0,0l0.1,1l0.1,0.4l0.1,0.4l0.1,0.4l0.1,0.4l0.1,0.4l0.1,0.4l0.1,0.8l0.1,0.4l0.1,0.4l0.1,0.4l0,0.4l0,0.4
			l0,0.4l0,0.4l0,0.4l0,0.4l0,0.3l0,0.3l0,0.3l0,0.3l0,0.3l0,0.3l0,0.3l0,0.1l0,0.1l0,0.1l0,0.1l0,0.1l0,0l0,0l0,0l0,0l0,0l0,0l0,0
			l0,0l0,0l0,0l0,0l0,0.1l0-0.2l0-0.1l0-0.1l0-0.1l0-0.2l0-0.2l0-0.2l0-0.2l0-0.2l0-0.3l0-0.3l0-0.3l0-0.3l0-0.4l0-0.4l0-0.4l0-0.4
			l0-0.4l0-0.4l0-0.4l0-0.4l0-0.4l0-0.4l0-0.4l0-0.4l0-0.4l0-0.4l0-0.4l0-0.5l0-0.5l0-0.5l0-0.5l0-0.1l0-0.1l0-0.1l0-0.2l0-0.2
			l0-0.2l0-0.2l0-0.2l0-0.2l0-0.2l0-0.2l0-0.3l0-0.3l0-0.3l0-0.3l0-0.3l0-0.3l0-0.3l0-0.3l0-0.3l0-0.3l0-0.3l0-0.3l0-0.3l0-0.3
			l0-0.3l0-0.2l0-0.2l0-0.2l0-0.2l0-0.2l0-0.2l0-0.1l0,0l0-0.1l0-0.1l0-0.1l0-0.1l0-0.1l0-0.3l0-0.3l0.1-0.3L45.5,6l0.1-0.3l0.2-0.3
			l0.3-0.2l0.3-0.1l0.2,0l0.1,0l0.1,0l0.1,0l0.1,0l0.1,0l0.1,0l0.1,0l0.2,0l0.1,0l0.1,0l0.1,0l0.1,0l0.1,0l0.1,0l0.2,0.1l0.2,0.1
			l0.1,0.1l0.1,0.1L49,5.8l0.1,0.1L49.2,6l0.1,0.1l0.1,0.1l0.1,0.2l0.1,0.2l0.1,0.2L49.6,7l0.1,0.2l0.1,0.2l0.1,0.2l0.1,0.3l0.1,0.3
			L50,8.6L50.1,9l0.1,0.4l0.1,0.4l0.1,0.4l0.1,0.4l0.1,0.4l0.1,0.4l0.1,0.4l0.1,0.4l0,0.1l0-0.3l0-0.4l0-0.4l0-0.4l0-0.4l0-0.4
			l0-0.4l0-0.4l0-0.4l0-0.4l0-0.4l0-0.4l0-0.1l0-0.2l0-0.1l0-0.1l0-0.1l0-0.1L51,7l0-0.1l0-0.1l0-0.1l0-0.1l0-0.1l0-0.2l0-0.4l0-0.6
			l0.1-0.6l0.1-0.5l0.1-0.5l0.2-0.4l0.3-0.4l0.3-0.3l0.4-0.2l0.2-0.1l0.2,0l0.2,0l0.2,0l0.2,0h0.2l0.2,0l0.2,0l0.2,0l0.2,0.1
			l0.2,0.1l0.2,0.1l0.2,0.2L54.8,3L55,3.2L55,3.5l0,0.2l0,0.2l0,0.2l0,0.2l0,0.2l0,0.2l0,0.3l0,0.3l0,0.3l0,0.4l0,0.4l0,0.4l0,0.4
			l0,0.5l0,0.5l0,0.5l0,0.5l0,0.5l0,0.5l0,0.5l0,0.5l0,0.5l0,0.5l0,0.5l0,0.5l0,0.5l0,0.5l0,0.5l0,0.5l0,0.5l0,0.4l0,0.4l0,0.6
			l0,0.6l0,0.5l0,0.5l0,0.5l0,0.5l0,0.4l0,0.4l0,0.4l0,0.4l0,0.3l0,0.3l0,0.3l0,0.3l0,0.2l0,0.2l0,0.4l-0.1,0.3l-0.1,0.3l-0.1,0.3
			l-0.1,0.3L54,24.8l-0.3,0.3l-0.3,0.1l-0.1,0l-0.1,0l-0.1,0l-0.1,0H53l-0.1,0l-0.1,0l-0.1,0l-0.1,0l-0.1,0h0l0,0l0,0l0,0l0,0l0,0
			l-0.3,0.1l-0.4,0l-0.4-0.2l-0.3-0.3l-0.3-0.4l-0.2-0.4l-0.2-0.5l-0.2-0.5l-0.2-0.6l0-0.1l0-0.1l0-0.1l0-0.1l0-0.1l0-0.1l0-0.1
			l0-0.1l-0.1-0.2l-0.1-0.2L49.4,21l-0.1-0.2l-0.1-0.2l-0.1-0.2L49,20L49,19.8l-0.1-0.3l-0.1-0.3l0,0l0,0.1l0,0.3l0,0.3l0,0.3l0,0.3
			l0,0.4l0,0.4l0,0.4l0,0.4l0,0.3l0,0.1l0,0.1l0,0.1l0,0.1l0,0.1l0,0.1v0l0,0l0,0.9l0,0.7l-0.1,0.6l-0.1,0.6l-0.2,0.5l-0.3,0.5
			l-0.4,0.4l-0.4,0.2l-0.2,0l-0.1,0l-0.1,0l-0.1,0l-0.1,0l-0.1-0.1l-0.1-0.1l-0.1-0.1l-0.1,0l0,0l0,0l0,0l-0.1,0l-0.1,0l-0.1,0
			l-0.2,0l-0.2-0.1L45,26.9l-0.2-0.3l-0.1-0.3l0,0.1l0,0.2l0,0.2l0,0.2l-0.1,0.2l-0.1,0.1l-0.1,0.1l-0.1,0.1l-0.1,0.1l-0.1,0.1
			l-0.1,0.1L44.2,28l-0.1,0.1L44,28.2l-0.1,0.1l-0.1,0.1l-0.1,0l-0.1,0l-0.1,0l-0.1,0l-0.1,0l-0.1,0h-0.1l0,0l0,0l-0.1,0.1l-0.1,0.1
			l-0.1,0L43,28.6l-0.1,0.1l-0.1,0l-0.1,0l-0.2,0l-0.2,0l-0.2,0l-0.2-0.1l-0.2-0.1l-0.2-0.2l-0.2-0.2l-0.1-0.2L41,27.9l-0.1-0.2
			l-0.1-0.3l-0.1-0.3l-0.1-0.3l-0.1-0.3L40.5,26l-0.1-0.4l0-0.1l0-0.1l0-0.1l0-0.2l0-0.2l0-0.2l0-0.2l0-0.2l0-0.2l0-0.2l-0.1,0
			l-0.2,0.1l-0.2,0.1l-0.2,0.1l-0.2,0.1L39,24.5l-0.2,0.1l-0.2,0.1l-0.1,0.1l-0.1,0.1l-0.1,0l0,0l0,0.1l0,0.1l0,0.2l0,0.2l0,0.1
			l0,0.1l0,0.1l0,0.1l0,0.1l0,0.1l0,0.1l0,0.1l0,0.1l0,0.1l0,0.1l0,0.1l0,0.1l0,0.1l0,0.1l0,0.1l-0.1,0.4l-0.1,0.4L37.8,28l-0.1,0.4
			l0,0.3l0,0.3l0,0.3l0,0.3l0,0.1l0,0.2l0,0.2l0,0.2l-0.1,0.2l-0.1,0.2L37.3,31l-0.1,0.2l-0.1,0.2L37,31.4l-0.1,0.1l-0.1,0.1
			l-0.1,0.1l-0.1,0.1l-0.1,0.1L36.2,32L36,32l-0.2,0l-0.2,0l-0.2,0l-0.2,0l-0.2,0l-0.2,0l-0.2,0l-0.1,0L34.6,32l-0.2-0.1l-0.2-0.1
			l-0.2-0.1L34,31.4l-0.1-0.3l-0.1-0.3l0-0.2l0-0.2l0-0.2l0-0.2l0-0.2L33.8,29.7z M25.4,13.3l0.2-0.3l0.2-0.3l0.2-0.3l0.2-0.3
			l0.2-0.2l0.3-0.2l0.3-0.2l0.3-0.2l0.3-0.2l0.3-0.2l0.4-0.2l0.2-0.1l0.2-0.1l0.2-0.1l0.2-0.1l0.2,0l0.2,0l0.2,0l0.2,0l0.2,0l0.2,0
			l0.2,0l0.2,0l0.2,0l0.2,0.1l0.2,0.1l0.2,0.1l0.2,0.1l0.2,0.1l0.2,0.2l0.2,0.2l0.2,0.2l0.2,0.2l0.2,0.2l0.2,0.2l0.2,0.2l0.2,0.2
			l0.2,0.2l0.1,0.2l0.1,0.3l0.1,0.3l0.1,0.3l0.1,0.3l0.1,0.4l0.1,0.4l0,0.4l0,0.4l0,0.5l0,0.5l0,0.5l0,0.5l0,0.3l0,0.2l0,0.2l0,0.2
			l0,0.2l-0.1,0.2l-0.1,0.2l-0.1,0.2l-0.1,0.2l-0.1,0.2l-0.1,0.2l-0.1,0.2l-0.1,0.2l-0.1,0.2l-0.1,0.2l-0.1,0.2L33,21.9l-0.1,0.3
			l-0.2,0.3l-0.2,0.3l-0.2,0.3l-0.2,0.3L32,23.8l-0.2,0.3l-0.2,0.3l-0.2,0.3L31.1,25l-0.2,0.3l-0.2,0.3l-0.2,0.2L30.2,26l0,0l0,0.1
			l0,0.1l0,0.1l0,0.1l0,0.1l0,0.1l0,0.3l0,0.3l0,0.3l0,0.3l0,0.3l0,0.3l0,0.3l0,0.3l0,0.1l0,0.1l0,0.1l0,0.1l0,0.1l0,0.1l0,0.1l0,0
			l0,0.2l0,0.2l0,0.2l0,0.2l0,0.2l0,0.2l0,0.2l0,0.2l0,0.2l0,0.1l0,0.1l0,0.1l0,0.2l0,0.2l0,0.2l0,0.2l0,0.2l0,0.2l0,0.2l-0.1,0.2
			l-0.1,0.2l-0.1,0.2l-0.1,0.2l-0.1,0.2L30.1,34l-0.1,0.1l-0.2,0.1l-0.1,0.1l-0.2,0.1l-0.2,0.1l-0.2,0l-0.2,0l-0.2,0l-0.2,0l-0.2,0
			l-0.2,0l-0.2,0l-0.2-0.1l-0.2-0.1l-0.2-0.1L27.2,34L27,33.8l-0.2-0.3l-0.1-0.3L26.7,33l0-0.2l0-0.2l0-0.3l0-0.3l0-0.3l0-0.4l0-0.4
			l0-0.5l0-0.5l0-0.5l0-0.6l0-0.6l0-0.7l-0.1-0.7L26,26.2l0-0.4L26,25.1l0-0.4l0-0.4l0-0.4l0-0.4l0-0.4l0-0.4l-0.1-0.7l0-0.3l0-0.3
			l0-0.3l0-0.3l0-0.3l0-0.3l0-0.3l0-0.3l0-0.3l0-0.4l0-0.5l0-0.3l0-0.3l0-0.3l0-0.3l0-0.3l0-0.3l0-0.3l0-0.3l0-0.3l0-0.1l0-0.1
			l0-0.1l0-0.1l0-0.1l0-0.1l0-0.1l0-0.4l0-0.4l0.1-0.4l0.1-0.4L25.4,13.3z M29.6,18.4l0,0.3l0,0.3l0,0.4l0.1-0.3l0-0.2l0-0.2l0-0.2
			l0-0.2l0-0.2l0-0.2l0-0.2l0-0.2l0-0.2l0-0.2l0-0.2l0-0.2l0-0.2l0-0.2l0-0.2l-0.1-0.2l0-0.1l0,0l-0.1,0l-0.1,0l0,0l0,0.1l0,0.2
			l0,0.2l0,0.2l0,0.2l0,0.2l0,0.2l0,0.2l0,0.2l0,0.2l0,0.3l0,0.3L29.6,18.4z M14.5,19.5l0.1,0.2l0.1,0.2l0.1,0.2l0.1,0.2l0.1,0.2
			l0.1,0.3l0.1,0.3l0.1,0.4l0.1,0.5l0.1,0.5l0.1,0.6l0.1,0.3l0.1,0.3l0.1,0.3l0.1,0.3l0.1,0.3l0.1,0.4l0.1,0.4l0.1,0.4l0.1,0.4
			l0.1,0.4l0.1,0.4l0.1,0.4l0.1,0.4l0.1,0.4l0.1,0.4l0.1,0.4l0,0.2l0,0.2l0,0.2l0,0.2l0,0.2l0,0.2l0.1,0.3l0.1,0.3l0.1,0.3l0.1,0.3
			l0.1,0.3l0.1,0.3l0.1,0.3l0.1,0.3l0.1,0.3l0,0.3l0.1,0.5l0.1,0.4l0.1-0.1l0.2-0.1l0.2-0.1l0.2-0.1l0.2-0.1l0.2-0.1l0.2-0.1
			l0.2-0.1l0.2-0.1l0.2-0.1l0.2,0l0.2,0l0.2,0l0.2,0.1l0.2,0.1l0.2,0.2l0.2,0.2l0.2,0.2l0.1,0.2l0.1,0.2l0.1,0.3l0.1,0.3l0.1,0.4
			l0,0.5l-0.1,0.5L22,36.3l-0.2,0.4L21.6,37l-0.2,0.3l-0.3,0.2l0,0l0,0l0,0l0,0l0,0l0,0l0,0l-0.1,0.1l-0.2,0.2l-0.2,0.2l-0.2,0.2
			l-0.2,0.2l-0.2,0.2l-0.2,0.2L19.6,39l-0.2,0.2l-0.2,0.2L19,39.6l-0.2,0.2L18.6,40l-0.2,0.2l-0.2,0.2l-0.2,0.2L18,40.8l-0.1,0.1
			L17.8,41l-0.1,0.1l-0.1,0.1l-0.1,0.1l-0.1,0.1l-0.1,0.1l-0.2,0.1l-0.2,0l-0.2,0l-0.1,0l-0.1,0l-0.1,0l-0.1,0l-0.1,0l0,0l0,0l0,0
			l0,0l0,0l0,0l0,0h0l0,0L16,41.2l-0.2-0.1L15.6,41l-0.2-0.1l-0.2-0.1l-0.2-0.2l-0.2-0.2l-0.1-0.2L14.8,40l0-0.1l0-0.1l0-0.2l0-0.2
			l-0.1-0.2l-0.1-0.2l-0.1-0.3l-0.1-0.3L14.3,38l-0.1-0.4l-0.1-0.4L14,36.8l-0.1-0.5l-0.1-0.5l-0.1-0.5L13.7,35l-0.1-0.3l-0.1-0.3
			l-0.1-0.3l-0.1-0.3l-0.1-0.3l-0.1-0.3L13.3,33l-0.1-0.3l-0.1-0.3l-0.1-0.3L13,31.8L13,31.5l-0.1-0.3l-0.1-0.3l-0.1-0.3l-0.1-0.3
			l-0.1-0.3l-0.1-0.3l-0.1-0.3l-0.1-0.3l-0.1-0.3l-0.1-0.3l-0.1-0.4l-0.1-0.4l-0.1-0.4L12,26.7L12,26.3L11.9,26l-0.1-0.4l-0.1-0.4
			l-0.1-0.4l-0.1-0.3l-0.1-0.3l0-0.3l0-0.3l0-0.2l0-0.2l0-0.2l0-0.2l0-0.2l0-0.2l0-0.2l0-0.2l0-0.2l0-0.2l0-0.2L11,21.1l0.1-0.4
			l0.1-0.2l0.1-0.1l0.1-0.1l0.1-0.1l0.1-0.1l0.1-0.1l0.1-0.1l0.1-0.1l0.1-0.1l0.1-0.1l0.1-0.1l0.1-0.1l0.1-0.1l0.1-0.1l0.1-0.1
			l0.1-0.1l0.2-0.1l0.2-0.1l0.2,0l0.2,0l0.2,0l0.2,0l0.2,0l0.2,0l0.2,0.1l0.2,0.1l0.2,0.1L14.5,19.5z M8.3,36.2l-0.1-0.3l-0.1-0.3
			L8,35.3L8,35l-0.1-0.3l-0.1-0.3l-0.1-0.3l-0.1-0.3l-0.1-0.3l-0.1-0.3l-0.1-0.3l-0.1-0.3l-0.1-0.3l-0.1-0.3l-0.1-0.3L7,31.2
			l-0.1-0.3l-0.1-0.3l-0.1-0.3l-0.1-0.3l-0.1-0.3l-0.1-0.3l0-0.2l-0.1-0.2l-0.1-0.2l-0.1-0.2l-0.1-0.2l-0.1-0.2l-0.1-0.3L6,27.4
			l-0.1-0.6l-0.1-0.6l-0.1-0.5l0-0.5l0-0.5l0.1-0.5l0.2-0.5l0.3-0.3l0.2-0.2l0.2-0.1L7,23l0.2-0.1l0.2-0.1l0.2-0.1l0.2,0l0.2,0
			l0.2,0l0.2,0l0.2,0l0.2,0.1l0.2,0.1l0.2,0.2l0.2,0.2l0.1,0.3l0.1,0.2l0,0.1l0,0.1l0,0.1l0,0.2l0.1,0.2l0.1,0.2L9.8,25l0.1,0.3
			l0.1,0.3l0.1,0.3l0.1,0.3l0.1,0.3l0.1,0.3l0.1,0.3l0.1,0.3l0,0.1l0,0.1l0,0.1l0,0.2l0,0.2l0.1,0.2l0.1,0.2l0.1,0.2l0.1,0.2
			l0.1,0.2l0.1,0.2l0.1,0.2l0.1,0.2l0,0.2l0,0.2l0,0.2l0.1,0.3l0.1,0.3l0.1,0.2l0.1,0.2l0.1,0.2l0.1,0.2l0.1,0.2l0.1,0.2l0,0l0,0
			l0,0l0,0l0,0l0,0l0.1,0.5l0.1,0.5l0.1,0.5l0.1,0.5l0.1,0.5l0.1,0.5l0.1,0.5l0.1,0.5l0.1,0.5l0.1,0.5l0.1,0.5l0.1,0.5l0.1,0.5
			l0.1,0.5l0.1,0.5l0.1,0.5l0,0.1l0,0.1l0,0.1l0,0.1l0,0l0,0l0,0l0,0.1l0,0.1l0,0.1l0.1,0.5l0.1,0.4l0.1,0.4l0,0.4l0,0.4l-0.1,0.4
			L14,44.1l-0.3,0.3l-0.2,0.2l-0.2,0.1l-0.2,0.1l-0.2,0.1l-0.2,0l-0.2,0l-0.2,0l-0.2,0l-0.2,0l-0.2,0l-0.2,0l-0.2-0.1L11,44.6
			l-0.2-0.1l-0.2-0.2L10.4,44l-0.1-0.2l0-0.1l0-0.1l0-0.2l-0.1-0.2L10.1,43L10,42.8l-0.1-0.3l-0.1-0.3l-0.1-0.3l-0.1-0.4l-0.1-0.4
			l-0.1-0.4l-0.1-0.5l-0.1-0.5L9,39.1l-0.1-0.3l-0.1-0.3l-0.1-0.3l-0.1-0.3l-0.1-0.3l-0.1-0.3l-0.2-0.6l-0.1-0.3L8.3,36.2z"/>
		<path class="st1" d="M127.9,26.6c0.2-0.9,0.6-1.9,1.1-2.9c0.5-1,1-2,1.7-3c0.7-1,1.3-2,2-2.8c0.6-0.8,1.2-1.5,1.8-2.1
			c0.9-0.8,1.6-1.4,2.3-1.7c0.7-0.3,1.3-0.3,1.9,0c0.5,0.2,0.9,0.7,1.3,1.6c0.1,0.2,0.2,0.4,0.3,0.5c0.3,0.5,0.4,1,0.5,1.3
			c0,0.4,0,0.8-0.2,1.3c-0.1,0.6-0.4,1.2-0.7,1.8c-0.3,0.6-0.6,1.1-0.9,1.4c-0.1,0.1-0.3,0.2-0.6,0.2c-0.3,0-0.6,0-0.8-0.2
			c-0.3-0.1-0.5-0.4-0.6-0.7c-0.1-0.3,0-0.7,0.1-1.3c0.1-0.3,0.2-0.7,0.4-1.2c0.2-0.5,0.3-0.8,0.3-1c0.1-0.3,0.1-0.5,0.1-0.7
			c0-0.2-0.1-0.3-0.2-0.4c-0.2-0.1-0.5,0.1-0.9,0.4c-0.4,0.4-0.9,0.9-1.5,1.7c-1.2,1.6-2.2,3.2-3.1,4.8c-0.8,1.6-1.4,3-1.8,4.2
			c-0.2,0.6-0.2,1-0.2,1.4c0,0.3,0.1,0.5,0.3,0.6c0.3,0.1,0.9,0,1.6-0.5c0.7-0.5,1.4-1.2,2-2c0-0.1,0.1-0.2,0.2-0.3
			c0.3-0.5,0.6-0.9,0.9-1l0.1,0c0.4-0.2,0.7-0.2,0.9-0.2c0.1,0.1,0.3,0.3,0.4,0.6c0.1,0.3,0.2,0.6,0.1,0.8c-0.1,0.4-0.3,0.9-0.6,1.4
			c-0.3,0.6-0.7,1.1-1.2,1.7c-0.1,0.1-0.3,0.3-0.5,0.5c-0.2,0.2-0.4,0.3-0.5,0.5c-0.5,0.5-1,0.8-1.7,1c-0.7,0.2-1.4,0.1-1.9-0.1
			c-1.2-0.5-1.9-1.2-2.3-2.1C127.5,29.2,127.5,28,127.9,26.6 M116.9,25.7c0.2-0.9,1.4-3.7,3.5-8.5l0.2-0.5c0-0.1,0.1-0.2,0.1-0.3
			c0.8-2,1.8-4,2.8-6.1c0.1-0.1,0.1-0.3,0.2-0.4c0.2-0.3,0.3-0.5,0.5-0.6c0.2-0.1,0.3-0.1,0.4-0.2C124.9,9,125,9,125,9
			c0,0,0.2,0.2,0.4,0.4c0.2,0.3,0.4,0.4,0.5,0.4c0,0,0.1,0,0.1,0c0.8-0.1,1.7,0,2.8,0.4c0.5,0.2,1,0.5,1.4,1c0.4,0.5,0.7,1,0.8,1.5
			c0.1,0.4,0.1,1,0.1,1.7c0,0.7,0,1.2-0.1,1.5c-0.2,0.7-0.6,1.4-1.2,2c-0.7,0.7-1.6,1.3-2.8,2c-0.4,0.2-0.9,0.4-1.4,0.6
			c-0.5,0.2-0.8,0.3-0.8,0.3c0,0,0,0.5,0.1,1.4c0.1,0.9,0.2,1.8,0.3,2.6c0.1,1,0.2,1.8,0.2,2.4c0,0.6,0,1,0,1.1
			c0,0.2-0.2,0.3-0.3,0.4c0,0,0,0-0.1,0c-0.1,0-0.3,0.2-0.5,0.4c-0.2,0.2-0.3,0.3-0.4,0.3c-0.3-0.1-0.6-0.4-0.8-0.8
			c-0.2-0.4-0.4-1.3-0.7-2.7c-0.2-0.9-0.3-2.1-0.5-3.4c-0.1-1.3-0.2-2-0.3-2.1c0,0-0.2,0.3-0.5,1c-0.3,0.7-0.8,1.8-1.6,3.5
			c-0.4,0.9-0.7,1.5-0.9,1.9c-0.2,0.3-0.4,0.5-0.5,0.4c0,0-0.1-0.1-0.4-0.3c-0.2-0.2-0.5-0.4-0.7-0.6c-0.1-0.1-0.2-0.2-0.3-0.3
			C116.9,26,116.9,25.9,116.9,25.7z M127.4,12.8c-0.2-0.1-0.6-0.1-1.2-0.1c-0.2,0-0.3,0-0.4,0c0,0-0.1,0-0.2,0
			c-0.3,0-0.4,0.1-0.5,0.3c-0.4,1-0.9,2-1.4,3c-0.5,1-0.8,1.6-0.8,1.8c0,0,0,0.1,0,0.1c0,0,0.1,0.1,0.1,0.1c0.2,0.1,0.5,0,1.1-0.1
			c0.5-0.2,1.2-0.4,2.1-0.8c0.7-0.3,1.3-0.7,1.8-1.3c0.5-0.6,0.8-1.1,0.9-1.6c0-0.2,0-0.4,0-0.6c-0.1-0.2-0.2-0.3-0.4-0.3
			c-0.1,0-0.3-0.1-0.4-0.1c-0.1,0-0.2-0.1-0.3-0.1c-0.1,0-0.1-0.1-0.2-0.1C127.5,12.9,127.4,12.9,127.4,12.8z M115.9,9.8
			c-1.1,2.3-2.3,4.4-3.5,6.3c-0.2,0.4-0.3,0.6-0.4,0.6c0,0,0,0.1,0,0.1c0,0,0.1,0.1,0.2,0.1c0,0,0,0,0.1,0c0.3,0,0.7,0.1,1,0.2
			l0.1,0c0.4,0.1,0.7,0.1,0.8,0c0.1-0.1,0.2-0.3,0.3-0.8c0-0.2,0.1-0.4,0.1-0.6c0-0.2,0-0.3,0-0.4c0-0.1,0.2-0.8,0.4-2
			C115.4,12.2,115.6,10.9,115.9,9.8z M113.7,20c-0.8,0-1.5-0.1-2-0.1c-0.6-0.1-0.9-0.1-1-0.1c-0.3,0-0.7,0.3-1,1
			c-0.1,0.3-0.2,0.5-0.3,0.6c0,0.1-0.2,0.3-0.3,0.5c-0.6,0.9-1,1.7-1.4,2.5c-0.1,0.3-0.3,0.5-0.5,0.6c-0.2,0.1-0.4,0.2-0.6,0.1
			c-0.4-0.1-0.6-0.2-0.9-0.4c-0.2-0.2-0.3-0.4-0.3-0.6c0-0.3,0.6-1.5,1.7-3.7c1.1-2.2,2.3-4.4,3.7-6.6c0.8-1.3,1.8-2.9,2.9-4.9
			c1.3-2.3,2.1-3.4,2.4-3.3c0.6,0.2,1.3,0.5,1.9,0.9c0.6,0.4,0.9,0.7,0.9,0.9c0,0,0,0,0,0.1c-0.2,0.6-0.4,1.3-0.5,2.2
			c0,0.1,0,0.3,0,0.4c0,0.2,0,0.2,0,0.3c0,0.3-0.2,0.8-0.3,1.5c-0.2,0.7-0.3,1.2-0.3,1.6c0,0.1,0,0.3-0.1,0.4c0,0.2,0,0.2,0,0.3
			c0,0.1-0.1,0.6-0.4,1.7c-0.2,1.1-0.4,2.1-0.7,3.2c-0.4,1.9-0.8,3.7-1.2,5.4c-0.1,0.3-0.1,0.5-0.1,0.6c0,0.1,0,0.2,0,0.3
			c0,0.1,0,0.2,0,0.2c0,0.1-0.1,0.2-0.3,0.3c-0.2,0.1-0.3,0.1-0.4,0.1c-0.1,0-0.1-0.1-0.2-0.1c-0.1-0.1-0.2-0.1-0.2-0.1
			c-0.1,0-0.2,0-0.3,0c-0.1,0-0.2,0.1-0.3,0c-0.3-0.1-0.5-0.3-0.5-0.6c-0.1-0.3,0-1.1,0.2-2.2c0-0.2,0.1-0.6,0.2-1.2
			C113.5,21.1,113.6,20.5,113.7,20z M99.8,8c-0.8,2.9-1.7,6.1-2.5,9.5c-0.8,3.4-1.3,5.1-1.5,5.1c-0.3,0-0.6-0.1-1-0.3
			c-0.4-0.2-0.6-0.3-0.6-0.4c0-0.1-0.1-0.3-0.1-0.5c0-0.1,0-0.1,0-0.1c0,0,0-0.1-0.1-0.1c0,0-0.1-0.1-0.1-0.1c0-0.2,0.4-1.7,1.1-4.4
			c0.7-2.7,1.6-5.7,2.5-9c0.2-0.7,0.5-1.6,0.7-2.4c0.3-0.9,0.4-1.4,0.4-1.4c0-0.1,0.2-0.1,0.4-0.2c0.2-0.1,0.4-0.1,0.4-0.1
			c0,0,0.2,0.1,0.4,0.2c0.3,0.1,0.6,0.2,0.8,0.3l0.3,0c0.4,0.1,0.6,0.1,0.7,0.3c0.1,0.1,0.1,0.4,0.1,0.9c-0.1,1.5-0.3,3.2-0.5,5.2
			c-0.3,2-0.4,3.4-0.4,4c0.6-1.5,1.2-2.8,1.7-4.1c0.6-1.3,1-2.3,1.4-3c0.3-0.6,0.6-1.2,1-2.1c0.6-1.3,1.1-2,1.5-1.9
			c0.4,0.1,0.8,0.2,1.3,0.6c0.5,0.3,0.7,0.6,0.7,0.7c0,0-0.1,0.2-0.2,0.6c-0.1,0.4-0.2,0.9-0.3,1.3c-0.3,1.2-0.6,2.6-1,4.2
			c-0.4,1.6-0.8,3.2-1.3,4.9c-0.2,0.8-0.5,1.8-0.8,3c-0.8,3-1.3,4.5-1.7,4.5l-0.1,0l-0.3,0c-0.3,0-0.6-0.2-0.9-0.5
			c-0.3-0.3-0.4-0.5-0.4-0.8c0-0.1,0.5-1.7,1.4-4.7c0.9-3.1,1.8-6.2,2.5-9.4c-0.6,1.1-1.2,2.6-2,4.4c-0.8,1.8-1.3,3-1.6,3.6
			c-0.8,1.6-1.3,2.6-1.5,3.1c-0.2,0.5-0.4,0.8-0.4,0.8c0,0.1-0.1,0.1-0.2,0.2c-0.1,0-0.2,0-0.3,0c-0.1,0-0.3-0.2-0.7-0.5
			c-0.3-0.3-0.5-0.5-0.5-0.7c0,0,0,0,0-0.1c0.1-0.2,0.1-0.5,0.1-0.7l0.1-0.6c0.1-0.7,0.2-1.9,0.4-3.4c0.2-1.5,0.3-2.7,0.4-3.6
			c0-0.3,0-0.6,0.1-0.9C99.7,8.8,99.8,8.4,99.8,8z M80.9,20.3c0-0.2,0.3-1.8,0.8-4.7c0.5-2.9,1.2-6.4,2-10.4
			c0.3-1.5,0.5-2.6,0.7-3.4c0,0,0.1-0.1,0.4-0.2c0.2-0.1,0.5-0.1,0.6-0.1c0.3,0,0.5,0.1,0.8,0.3c0.2,0.2,0.3,0.5,0.3,0.7
			c0,0.2-0.1,1.2-0.4,2.9c-0.3,1.7-0.6,3.7-1,5.9c-0.2,1.3-0.5,2.6-0.8,4c-0.3,1.4-0.4,2.1-0.4,2.2c0,0,0,0.1,0.1,0.1
			c0,0,0.1,0,0.3,0c0,0,0.1,0,0.2,0c0.6,0,1.2-0.1,1.8-0.1c0.5,0,0.8,0.2,1,0.5c0.2,0.3,0.3,0.8,0.3,1.6c0,0.6-0.4,0.9-1.1,1
			c-0.1,0-0.1,0-0.2,0c-1.1,0.1-2.4,0.5-3.8,0.9c-0.4,0.1-0.6,0.2-0.7,0.2c0,0-0.1-0.1-0.2-0.2c-0.1-0.1-0.2-0.3-0.3-0.4l0,0
			C81,20.8,80.9,20.5,80.9,20.3z M72.4,20.4c0-0.6,0.5-3.9,1.6-9.7l0.4-1.9c0.6-3.2,1-5.2,1.3-5.9c0.2-0.7,0.5-1,0.9-1
			c0.1,0,0.2,0,0.3,0.1c0.1,0.1,0.2,0.1,0.3,0.1c0,0,0.2,0,0.4-0.1c1.2-0.3,2.2-0.5,3.2-0.5c0.2,0,0.4,0.2,0.6,0.6
			c0.2,0.4,0.3,0.7,0.3,1c0,0.7-0.1,1.1-0.4,1.3c-0.3,0.2-1,0.3-2.2,0.4c-0.1,0-0.2,0-0.4,0c-0.7,0.1-1,0.2-1.1,0.3c0,0,0,0.1,0,0.1
			c-0.1,0.5-0.2,1-0.3,1.6c-0.2,0.7-0.3,1.2-0.4,1.7c-0.1,0.5-0.1,0.7-0.1,0.8c0,0.1,0,0.1,0,0.1c0,0,0.1,0,0.2,0c0,0,0.3,0,0.9-0.1
			c0.6-0.1,1.2-0.1,1.7-0.1c0.3,0,0.5,0.1,0.6,0.3c0.1,0.2,0.2,0.6,0.2,1.2c0,0.2,0,0.6-0.1,1.1c0,0.1,0,0.1,0,0.1
			c-0.1,0.2-0.9,0.4-2.4,0.6c-0.1,0-0.2,0-0.3,0c0,0-0.1,0-0.2,0c-0.9,0.1-1.4,0.3-1.4,0.6c-0.2,1.1-0.4,2.1-0.6,3.1
			c-0.2,1-0.3,1.5-0.3,1.5c0,0.1,0,0.2,0,0.2c0,0,0.1,0.1,0.2,0.1c0.3,0,0.9-0.1,1.6-0.2c0.7-0.2,1.2-0.2,1.4-0.2
			c0.2,0,0.4,0.2,0.6,0.4c0.2,0.3,0.3,0.6,0.3,0.9c0,0.2,0,0.4-0.1,0.7c-0.1,0.3-0.1,0.4-0.1,0.5c0,0,0,0.1,0,0.2c0,0.1,0,0.2,0,0.2
			c0,0.1,0,0.1,0,0.2c0,0-0.1,0-0.2,0h-0.1c-0.2,0-0.7,0.1-1.4,0.3c-0.7,0.2-1.3,0.3-1.7,0.4c-0.6,0.1-1.1,0.2-1.7,0.3
			c-0.1,0-0.2,0-0.2,0c-0.1,0-0.3-0.2-0.7-0.5C72.6,20.9,72.4,20.6,72.4,20.4z M61.6,21.9c0,0,0.1-0.9,0.3-2.5
			c0.2-1.6,0.4-3.3,0.5-4.9l0.5-4.5c0.5-4.3,0.7-6.4,0.7-6.4c0-0.1,0-0.2,0-0.4c0-0.1,0-0.2,0-0.3c0-0.3,0.2-0.5,0.5-0.6
			c0.4-0.2,1-0.3,1.8-0.4c0.4,0,0.9,0,1.5,0.2c0.6,0.1,1.1,0.4,1.5,0.6c0.7,0.4,1.2,1.1,1.7,2c0.4,0.9,0.7,1.9,0.8,3.2
			c0.1,1.7-0.1,3.5-0.7,5.6c-0.5,2-1.3,3.9-2.4,5.5c-0.7,1.1-1.5,2.1-2.4,2.9c-0.9,0.8-1.5,1.3-1.8,1.3c-0.1,0-0.4-0.1-0.8-0.3
			c-0.2-0.1-0.4-0.2-0.6-0.3c-0.1-0.1-0.3-0.1-0.5-0.2C61.8,22.1,61.6,22,61.6,21.9z M66.6,4.9c-0.2,0-0.4,0.1-0.5,0.2
			c-0.1,0.1-0.2,0.2-0.2,0.3c0,0,0,0.5-0.1,1.3c-0.1,0.8-0.2,1.6-0.3,2.4c-0.3,2.5-0.5,4.8-0.7,6.9c-0.2,2.1-0.3,3.2-0.3,3.2
			c0,0,0,0.1,0,0.1c0,0,0.1,0,0.1,0c0.1,0,0.4-0.3,0.8-0.9c0.4-0.6,0.8-1.2,1.2-2c0.7-1.4,1.2-2.8,1.5-4.2c0.3-1.5,0.4-2.9,0.3-4.3
			c-0.1-1-0.3-1.8-0.6-2.4C67.5,5.1,67.1,4.9,66.6,4.9z M51.8,19.3c-0.1-3.4-0.1-7.1,0-11.3c0-0.3,0-0.6,0-0.7c0-0.3,0-0.7,0-1.2
			c0-1.5,0.3-2.3,0.8-2.4c0.4-0.1,0.8-0.1,1.1-0.1c0.3,0,0.4,0.2,0.4,0.4c0,0.3,0,1.9-0.1,4.9c-0.1,2.9-0.2,5.5-0.2,7.9
			c0,3.2-0.1,5.3-0.2,6.2c-0.1,0.9-0.3,1.4-0.5,1.5c-0.1,0-0.2,0-0.4,0c-0.2,0-0.4,0-0.5,0l-0.2,0c-0.4,0.1-0.9-0.6-1.5-2.1
			c-0.1-0.4-0.2-0.6-0.3-0.9c-0.4-1.1-0.8-2.5-1.3-4.2c-0.5-1.7-0.9-3.5-1.4-5.4c0.2,3.4,0.2,7,0.2,10.8c0,0.4,0,0.7,0,0.8l0,0
			c0,2-0.3,3-0.8,3.2c-0.2,0-0.3,0-0.5-0.1c-0.2-0.1-0.3-0.2-0.4-0.2c0,0-0.1,0-0.1,0c-0.3,0-0.4,0-0.4-0.2c0-0.2,0-1.4,0-3.6
			c0-2.2,0.1-4.5,0.2-6.9c0-0.6,0.1-1.7,0.2-3.4c0.1-1.7,0.1-3.1,0.2-4.2c0-0.2,0-0.4,0-0.6c0-0.6,0.1-1,0.4-1c0.1,0,0.4,0,0.8,0
			c0.4,0,0.7,0.1,0.9,0.2c0.1,0,0.2,0.2,0.3,0.5c0.1,0.3,0.2,0.7,0.4,1.4c0.4,1.8,1,3.9,1.7,6.3C51.3,17.2,51.7,18.7,51.8,19.3z
			 M39.4,12.1c-0.3,2.7-0.7,5.2-1.2,7.6c-0.1,0.5-0.1,0.7-0.1,0.7c0,0,0,0.1,0.1,0.1c0.1,0,0.1,0,0.2,0c0,0,0,0,0.1,0
			c0.3-0.1,0.6-0.3,1-0.4l0.1,0c0.4-0.1,0.7-0.3,0.8-0.4c0.1-0.1,0.1-0.4,0-0.8c0-0.2-0.1-0.4-0.1-0.6c0-0.2-0.1-0.3-0.1-0.4
			c0-0.1-0.1-0.8-0.3-2.1C39.7,14.5,39.5,13.3,39.4,12.1z M40.8,22.6c-0.7,0.4-1.3,0.7-1.9,1c-0.5,0.3-0.9,0.4-1,0.5
			c-0.3,0.2-0.5,0.6-0.6,1.4c0,0.3,0,0.6-0.1,0.7c0,0.1-0.1,0.3-0.1,0.6c-0.2,1.1-0.4,2.1-0.4,3c0,0.3-0.1,0.6-0.2,0.8
			c-0.1,0.2-0.3,0.4-0.5,0.4c-0.3,0.1-0.7,0.1-0.9,0.1c-0.3-0.1-0.4-0.2-0.4-0.4c-0.1-0.3,0.1-1.7,0.3-4.2c0.3-2.5,0.7-5.2,1.2-8
			c0.3-1.6,0.6-3.6,1-6c0.4-2.8,0.8-4.2,1-4.3c0.6-0.2,1.3-0.3,2-0.2c0.7,0,1.1,0.2,1.1,0.3c0,0,0,0.1,0,0.1c0,0.7,0.1,1.4,0.2,2.2
			c0,0.1,0.1,0.2,0.1,0.4c0,0.1,0.1,0.2,0.1,0.3c0.1,0.3,0.1,0.8,0.2,1.5c0.1,0.7,0.1,1.3,0.2,1.7c0,0.1,0.1,0.3,0.1,0.4
			c0,0.1,0.1,0.2,0.1,0.2c0,0.1,0.1,0.6,0.2,1.7c0.1,1.1,0.3,2.2,0.5,3.3c0.3,1.9,0.5,3.8,0.7,5.6c0,0.4,0.1,0.6,0.1,0.6
			c0,0.1,0.1,0.2,0.1,0.3c0,0.1,0.1,0.2,0.1,0.2c0,0.1,0,0.2-0.1,0.4c-0.1,0.2-0.2,0.3-0.3,0.3c-0.1,0-0.1,0-0.2,0
			c-0.1,0-0.2,0-0.2,0c-0.1,0-0.2,0.1-0.3,0.2c-0.1,0.1-0.2,0.2-0.2,0.2c-0.3,0.1-0.5,0-0.7-0.3c-0.2-0.3-0.4-1-0.6-2.1
			c0-0.2-0.1-0.6-0.2-1.3C40.9,23.6,40.8,23,40.8,22.6z M27.5,33.1c-0.1-0.5-0.4-2.8-0.6-6.8c-0.3-4-0.6-7.5-0.9-10.5
			c0-0.1,0-0.3-0.1-0.6c-0.1-1.3,0.7-2.3,2.5-3.2c0.5-0.2,0.9-0.3,1.3-0.3c0.4,0,0.8,0.1,1.1,0.3c0.5,0.2,0.9,0.6,1.4,1.2
			c0.4,0.5,0.7,1.1,0.9,1.6c0.2,0.8,0.3,1.8,0.1,3c-0.1,1.2-0.4,2.4-0.9,3.5c-0.3,0.8-0.7,1.5-1.2,2.3c-0.5,0.7-1.1,1.4-1.7,1.9
			c-0.1,0.1-0.2,0.3-0.2,0.6c0,0.3,0.1,0.5,0.1,0.7c0.1,0.8,0.1,1.7,0.3,2.7c0,0.2,0,0.4,0,0.4c0,0.5,0.1,0.9,0,1.3
			c0,0.4,0,0.7,0,0.7c0,0,0,0.1,0.1,0.1c0,0.1,0.1,0.1,0.1,0.1c0.1,0.2,0,0.5-0.1,0.7c-0.1,0.3-0.2,0.5-0.4,0.5
			c-0.3,0.1-0.7,0.2-1.1,0.1C27.8,33.4,27.6,33.3,27.5,33.1z M29.1,15c-0.3,0.1-0.4,0.2-0.5,0.2c-0.1,0-0.1,0.1-0.1,0.1
			c0,0.1,0,0.3,0,0.8c0,0.5,0.1,1,0.1,1.5c0.1,0.5,0.1,1.3,0.2,2.4c0.1,1,0.1,1.7,0.2,2c0,0,0,0,0.1,0c0,0,0.1,0,0.1,0
			c0.6-0.3,1.1-1.1,1.4-2.4c0.3-1.3,0.3-2.7-0.1-4c-0.1-0.4-0.3-0.7-0.5-0.8C29.8,14.8,29.5,14.8,29.1,15z M15.6,39.8
			c-0.1-0.2-0.4-1.8-1-4.6c-0.6-2.9-1.3-6.3-2-10.4c-0.3-1.5-0.5-2.6-0.6-3.4c0,0,0.1-0.2,0.3-0.4c0.2-0.2,0.4-0.4,0.5-0.5
			c0.3-0.2,0.5-0.2,0.8-0.2c0.3,0.1,0.5,0.2,0.6,0.5c0.1,0.2,0.3,1.1,0.7,2.8c0.4,1.7,0.8,3.6,1.2,5.8c0.3,1.3,0.5,2.6,0.8,4
			c0.3,1.4,0.4,2.1,0.4,2.2c0,0,0,0.1,0.1,0c0,0,0.1-0.1,0.3-0.2c0,0,0.1-0.1,0.2-0.1c0.5-0.4,1-0.8,1.6-1.1
			c0.4-0.3,0.8-0.4,1.1-0.2c0.3,0.2,0.6,0.6,0.9,1.2c0.2,0.5,0,1-0.6,1.5c-0.1,0.1-0.1,0.1-0.2,0.1c-0.9,0.8-1.9,1.8-3,3.1
			c-0.3,0.3-0.5,0.5-0.5,0.6c0,0-0.1,0-0.2-0.1c-0.1-0.1-0.2-0.1-0.4-0.2l0,0C15.9,40.2,15.7,40.1,15.6,39.8z M11.1,43.6
			c-0.1-0.2-0.5-1.7-1.3-4.7c-0.8-3-1.6-6.3-2.5-9.8c-0.1-0.5-0.3-1.1-0.5-1.9c-0.4-1.5-0.4-2.4,0.1-2.8C7.3,24.1,7.7,24,8,24
			c0.3,0,0.5,0.1,0.7,0.3c0,0,0.1,0.5,0.3,1.3c0.2,0.8,0.4,1.6,0.6,2.5c0.1,0.3,0.2,0.8,0.4,1.5c0.2,0.7,0.3,1.2,0.4,1.6
			c0.2,0.7,0.3,1.4,0.5,2c0,0.1,0,0.1,0,0.2c0.8,2.7,1.5,5.3,2.1,7.7c0.1,0.3,0.1,0.4,0.1,0.5c0,0.1,0.1,0.2,0.1,0.3
			c0.3,1.1,0.3,1.7,0,1.9c-0.3,0.2-0.6,0.3-1.2,0.2C11.5,43.9,11.2,43.8,11.1,43.6z"/>
		<path class="st1" d="M138.7,36.4c-0.6-0.3-0.9-1.2-1-2.6c-0.1-1.4,0.1-2.8,0.6-4.3c0.5-1.5,1.3-3,2.4-4.5c1.1-1.5,2.2-2.8,3.6-3.9
			c0.8-0.7,1.6-1.2,2.4-1.4c0.8-0.3,1.4-0.2,1.9,0c0.2,0.1,0.5,0.4,0.9,0.9c0.4,0.5,0.7,0.9,1,1.2c0.4,0.4,0.6,1.2,0.6,2.4
			c0,1.2-0.2,2.3-0.6,3.5c-0.6,1.6-1.4,3.1-2.3,4.5c-1,1.4-2.1,2.6-3.4,3.6c-1.1,0.9-2.1,1.5-2.9,1.7c-0.8,0.3-1.6,0.2-2.2-0.1
			c-0.2-0.1-0.5-0.4-0.7-0.6C138.9,36.5,138.8,36.4,138.7,36.4 M148.6,22.5c-0.1-0.1-0.6,0.1-1.3,0.4c-0.7,0.4-1.5,0.9-2.2,1.5
			c-0.9,0.8-1.9,1.9-2.7,3.3c-0.9,1.3-1.5,2.6-2,3.7c-0.3,0.7-0.4,1.4-0.5,2.1c-0.1,0.7,0,1.1,0.2,1.2c0.2,0.1,0.5,0.1,1-0.1
			c0.5-0.2,1-0.4,1.5-0.8c0.4-0.3,0.9-0.7,1.3-1.3c0.5-0.5,1-1.2,1.6-1.9c0.6-0.8,1.1-1.6,1.6-2.3c0.4-0.7,0.7-1.4,1-2
			c0.4-1.1,0.6-1.9,0.7-2.6C148.9,23.1,148.9,22.6,148.6,22.5z"/>
	</g>
</g>
</svg>
