<?xml version="1.0" encoding="utf-8"?>
<!-- Generator: Adobe Illustrator 24.0.0, SVG Export Plug-In . SVG Version: 6.00 Build 0)  -->
<svg version="1.1" id="Livello_1" xmlns="http://www.w3.org/2000/svg" xmlns:xlink="http://www.w3.org/1999/xlink" x="0px" y="0px"
	 viewBox="0 0 32 28" style="enable-background:new 0 0 32 28;" xml:space="preserve">
<style type="text/css">
	.st0{fill:#EDECE6;}
	.st1{fill:#EB5352;}
</style>
<title>Logo</title>
<g id="Primary-Nav">
	<g id="Primary-Nav-Selected-Hover-Copy" transform="translate(-12.000000, -14.000000)">
		<g id="Logo" transform="translate(12.000000, 14.000000)">
			<path id="Shape" class="st0" d="M79.2,21.9h2.4l4.2-10.5h-2.4l-1.7,5.2l-1.8-5.2h-2.6l3.2,7.6L79.2,21.9z M67.3,13.9v5.4h-2.4
				v-7.9h1.7l0.5,0.7c0.7-0.6,1.4-0.9,2.2-0.9c1.1,0,1.9,0.3,2.4,1.1c0.7-0.7,1.5-1.1,2.5-1.1c1.9,0,3,1,3,3.6v4.5h-2.4v-4.2
				c0-1.2-0.5-1.6-1.3-1.6c-0.4,0-0.8,0.1-1.3,0.4c0,0.3,0,0.6,0,0.9v4.5h-2.4v-4.2c0-1.2-0.5-1.6-1.3-1.6
				C68,13.5,67.7,13.6,67.3,13.9z M58.9,14.6H62c-0.2-1-0.7-1.5-1.5-1.5C59.7,13.1,59,13.5,58.9,14.6z M60.6,19.5
				c-2.3,0-4.2-1.2-4.2-4.2c0-2.8,1.8-4,3.9-4c2.5,0,3.6,1.8,3.6,4.5h-5c0.2,1.4,1,1.8,2.1,1.8c0.9,0,1.8-0.2,2.4-0.6l-0.3,1.9
				C62.4,19.2,61.7,19.5,60.6,19.5z M51.7,17.4c0.6,0,1-0.1,1.4-0.4v-3.4c-0.4-0.2-0.8-0.3-1.3-0.3c-1.2,0-1.9,0.8-1.9,2.1
				C49.9,16.7,50.6,17.4,51.7,17.4z M53.5,18.7c-0.6,0.5-1.3,0.8-2.4,0.8c-2.2,0-3.7-1.3-3.7-4.1c0-2.7,1.8-4.2,4.1-4.2
				c0.5,0,1.1,0.1,1.5,0.3V8.1h2.4v11.1H54L53.5,18.7z M37.2,14.6V8.8h2.5v5.8c0,2.1,0.9,2.5,2.2,2.5c1.4,0,2.1-0.6,2.1-2.5V8.8h2.5
				v5.8c0,3.4-1.5,4.9-4.8,4.9C38.8,19.5,37.2,18.3,37.2,14.6z"/>
			<path id="Shape_1_" class="st1" d="M31.4,15.8c-0.1-0.1-0.2-0.2-0.4-0.2c-0.8,0.8-1.8,1.7-2.7,2.2c-0.4,0.3-0.9,0.4-1.2,0.4
				c-0.8,0-1.1-0.7-1.2-1.9c-0.1-1.6-0.2-3.5-0.2-6.4c0-3-0.7-5.1-2.5-5.2c-0.1,0-0.2,0-0.2,0c-1.1,0-1.7,0.6-2.4,2
				C20,8,19,9.8,17.3,13.2c-1.5,3-3.2,5.6-4.7,7.4c-0.4,0.5-0.7,0.9-1,1c-0.2,0.1-0.4,0.2-0.6,0.2c-0.6,0-1-0.5-1.1-1.6
				c0-0.3-0.1-0.6-0.1-0.9c0-2.3,0.9-6.1,2.4-11.7c1.1-4.1,0.6-6.8-1.8-6.8c0,0,0,0,0,0h0c-0.6,0-1,0.2-1.5,0.6
				C8.5,1.8,8,2.5,7.6,3.5C7.2,4.7,4.4,10.3,0,13.1c-0.1,1.1,0.6,2.2,1.8,2.3c1.1,0.1,1.9-0.4,3-1.1c-0.1,0.4-0.2,0.7-0.2,1
				c-0.1,0.4-0.1,0.7-0.2,0.9c-0.1,0.4-0.1,0.6-0.1,0.7c-0.1,0.7-0.2,1.3-0.3,1.9c-0.6,5.6,2,8.3,5,8.3c0.5,0,1-0.1,1.5-0.2
				c3.3-0.9,6.5-4.7,10.3-13.5c-0.1,1-0.1,1.9,0,2.7c0.3,5.1,2.2,6.6,5.1,6.6c2.1,0,4.1-1.1,5.1-2.5c0.7-1,1-2,1-2.9
				C32,16.6,31.8,16.1,31.4,15.8"/>
		</g>
	</g>
</g>
</svg>
